<?xml version="1.0" encoding="UTF-8" standalone="no"?>
<!DOCTYPE svg PUBLIC "-//W3C//DTD SVG 1.1//EN" "http://www.w3.org/Graphics/SVG/1.1/DTD/svg11.dtd">
<svg width="100%" height="100%" viewBox="0 0 650 254" version="1.1" xmlns="http://www.w3.org/2000/svg" xmlns:xlink="http://www.w3.org/1999/xlink" xml:space="preserve" xmlns:serif="http://www.serif.com/" style="fill-rule:evenodd;clip-rule:evenodd;stroke-linejoin:round;stroke-miterlimit:2;">
    <g transform="matrix(1,0,0,1,-275.049,-473.169)">
        <path d="M884.07,473.18C877.375,473.309 870.203,474.942 862.855,478.477L862.855,478.481L713.315,550.344C710.53,533.805 695.151,521.063 677.116,521.649L677.116,521.645L595.753,524.059C574.55,524.051 558.495,518.946 539.569,513.473C520.631,507.996 499.007,502.289 468.6,502.289C441.436,502.289 401.088,512.035 372.088,522.879L372.088,494.43L372.088,494.434C372.088,490.262 368.705,486.879 364.529,486.875L282.603,486.875C278.432,486.879 275.049,490.262 275.049,494.434L275.049,719.274C275.049,723.446 278.432,726.829 282.603,726.829L364.529,726.829C368.705,726.829 372.088,723.446 372.088,719.274L372.088,693.715C477.178,673.289 538.338,704.836 627.988,704.762L627.996,704.762C643.336,704.758 662.875,696.375 686.828,683.95C710.785,671.524 738.461,654.684 766.496,636.583C822.558,600.38 880.076,559.075 910.276,538.63L910.276,538.626C918.85,532.813 923.706,524.079 924.737,515.228C925.768,506.376 923.288,497.458 918.221,490.072C911.252,479.916 898.811,472.896 884.076,473.177L884.07,473.18ZM885.929,487.887C895.078,487.942 901.644,492.633 905.753,498.621C908.886,503.183 910.285,508.633 909.722,513.48C909.156,518.328 906.937,522.628 901.796,526.113L901.796,526.117C871.155,546.863 813.909,587.972 758.296,623.887C730.487,641.844 703.089,658.492 679.87,670.535C656.647,682.578 636.913,689.648 627.991,689.648L627.984,689.648C542.742,689.722 479.274,658.261 372.094,678.332L372.094,656.32C372.121,654.297 371.34,652.347 369.918,650.906C368.496,649.464 366.558,648.656 364.535,648.656C362.512,648.656 360.574,649.464 359.152,650.906C357.734,652.347 356.949,654.296 356.98,656.32L356.98,711.718L290.171,711.718L290.171,501.988L356.98,501.988L356.98,557.386C356.949,559.409 357.734,561.359 359.152,562.8C360.574,564.238 362.512,565.05 364.535,565.05C366.558,565.05 368.496,564.238 369.918,562.8C371.34,561.359 372.121,559.409 372.094,557.386L372.094,539.066C399.387,528.199 443.746,517.402 468.606,517.402C497.149,517.402 516.676,522.582 535.376,527.988C554.076,533.394 572.134,539.168 595.802,539.168L595.802,539.172C595.876,539.172 595.95,539.172 596.024,539.168L677.571,536.75C677.583,536.75 677.591,536.75 677.599,536.746C689.38,536.351 698.661,545.625 698.661,555.723C698.661,565.821 689.508,574.164 677.024,574.7L521.864,581.348L521.864,581.352C519.836,581.407 517.918,582.27 516.539,583.755C515.157,585.235 514.43,587.208 514.516,589.231C514.602,591.255 515.496,593.157 517,594.516C518.504,595.872 520.489,596.571 522.508,596.454L677.668,589.806C692.473,589.169 705.844,580.641 711.238,568.068L711.242,568.064C711.496,567.974 711.742,567.868 711.984,567.751L869.414,492.099L869.414,492.095C875.645,489.099 881.148,487.857 885.941,487.884L885.929,487.887Z" style="fill:white;"/>
    </g>
</svg>
