<?xml version="1.0" encoding="UTF-8" standalone="no"?>
<!DOCTYPE svg PUBLIC "-//W3C//DTD SVG 1.1//EN" "http://www.w3.org/Graphics/SVG/1.1/DTD/svg11.dtd">
<svg width="100%" height="100%" viewBox="0 0 900 900" version="1.1" xmlns="http://www.w3.org/2000/svg" xmlns:xlink="http://www.w3.org/1999/xlink" xml:space="preserve" xmlns:serif="http://www.serif.com/" style="fill-rule:evenodd;clip-rule:evenodd;stroke-linejoin:round;stroke-miterlimit:2;">
    <g transform="matrix(1,0,0,1,-152.4,-150)">
        <path d="M602.4,1050C354,1050 152.4,848.4 152.4,600C152.4,351.6 354,150 602.4,150C850.8,150 1052.4,351.6 1052.4,600C1052.4,848.4 850.8,1050 602.4,1050ZM602.4,187.2C374.4,187.2 189.6,372 189.6,600C189.6,828 374.4,1012.8 602.4,1012.8C830.4,1012.8 1015.2,828 1015.2,600C1014,372 829.2,187.2 602.4,187.2Z" style="fill:white;fill-rule:nonzero;"/>
        <path d="M620.4,712.8L583.201,712.8L583.201,682.8C583.201,635.999 608.4,591.601 648.002,568.8C680.4,549.601 698.4,513.601 694.803,476.402C690.002,433.203 655.201,398.402 612.002,393.601C584.4,391.203 559.201,398.402 538.803,416.402C518.405,434.402 507.604,459.601 507.604,486.004L470.405,486.004C470.405,448.805 486.007,412.805 513.604,388.805C541.206,364.805 578.405,351.606 615.604,356.407C675.604,363.606 724.804,411.606 730.804,471.607C736.804,524.408 710.406,574.807 664.804,600.007C636.003,616.808 618.003,646.808 618.003,681.609L620.4,712.8Z" style="fill:white;fill-rule:nonzero;"/>
        <path d="M639.6,806.4C639.6,826.947 622.944,843.603 602.397,843.603C581.854,843.603 565.198,826.947 565.198,806.4C565.198,785.857 581.854,769.201 602.397,769.201C622.944,769.201 639.6,785.857 639.6,806.4" style="fill:white;fill-rule:nonzero;"/>
    </g>
</svg>
